<?xml version="1.0" encoding="utf-8"?>
<!-- Generator: Adobe Illustrator 19.0.0, SVG Export Plug-In . SVG Version: 6.00 Build 0)  -->
<svg version="1.1" id="Layer_1" xmlns="http://www.w3.org/2000/svg" xmlns:xlink="http://www.w3.org/1999/xlink" x="0px" y="0px"
	 viewBox="0 0 160 60" style="enable-background:new 0 0 160 60;" xml:space="preserve">
<style type="text/css">
	.st0{fill:#45515C;}
	.st1{fill:#10B9D6;}
</style>
<path class="st0" d="M-450.9-0.4c0-3.9-2-7.3-5.1-9.2c2.7-2.4,4.1-6.1,3.4-10c-0.7-3.8-3.3-6.8-6.6-8.2c2.2-2.9,3-6.8,1.6-10.4
	c-1.3-3.7-4.4-6.2-8-6.9c1.7-3.2,1.8-7.2-0.2-10.6c-1.9-3.4-5.4-5.3-9-5.4c1.1-3.5,0.5-7.4-2-10.4c-2.5-3-6.3-4.3-9.8-3.8
	c0.5-3.6-0.8-7.3-3.8-9.8c-3-2.5-6.9-3.1-10.4-2c-0.1-3.6-2.1-7.1-5.4-9c-3.4-1.9-7.3-1.9-10.5-0.2c-0.8-3.5-3.3-6.6-6.9-8
	c-3.7-1.3-7.6-0.6-10.4,1.6c-1.4-3.4-4.4-6-8.2-6.6c-3.8-0.7-7.5,0.7-10,3.4c-1.9-3.1-5.3-5.1-9.2-5.1c-3.9,0-7.3,2-9.2,5.1
	c-2.4-2.7-6.1-4.1-10-3.4c-3.8,0.7-6.8,3.3-8.2,6.6c-2.9-2.2-6.8-3-10.4-1.6c-3.7,1.3-6.2,4.4-6.9,8c-3.2-1.7-7.2-1.8-10.5,0.2
	c-3.4,1.9-5.3,5.4-5.4,9c-3.5-1.1-7.4-0.5-10.4,2c-3,2.5-4.3,6.3-3.8,9.8c-3.6-0.5-7.3,0.8-9.8,3.8c-2.5,3-3.1,6.9-2,10.4
	c-3.6,0.1-7.1,2.1-9,5.4c-1.9,3.4-1.9,7.3-0.2,10.6c-3.5,0.8-6.6,3.3-8,6.9c-1.3,3.7-0.6,7.6,1.6,10.4c-3.4,1.4-6,4.4-6.6,8.2
	c-0.7,3.8,0.7,7.5,3.4,10c-3.1,1.9-5.1,5.3-5.1,9.2c0,3.9,2,7.3,5.1,9.2c-2.7,2.4-4.1,6.1-3.4,10c0.7,3.8,3.3,6.8,6.6,8.2
	c-2.2,2.9-3,6.8-1.6,10.4c1.3,3.7,4.4,6.2,8,6.9c-1.7,3.2-1.8,7.2,0.2,10.6c1.9,3.4,5.4,5.3,9,5.4c-1.1,3.5-0.5,7.4,2,10.4
	c2.5,3,6.3,4.3,9.8,3.8c-0.5,3.6,0.8,7.3,3.8,9.8c3,2.5,6.9,3.1,10.4,2c0.1,3.6,2.1,7.1,5.4,9c3.4,1.9,7.3,1.9,10.5,0.2
	c0.8,3.5,3.3,6.6,6.9,8c3.7,1.3,7.6,0.6,10.4-1.6c1.4,3.4,4.4,6,8.2,6.6c3.8,0.7,7.5-0.7,10-3.4c1.9,3.1,5.3,5.1,9.2,5.1
	c3.9,0,7.3-2,9.2-5.1c2.4,2.7,6.1,4.1,10,3.4c3.8-0.7,6.8-3.3,8.2-6.6c2.9,2.2,6.8,3,10.4,1.6c3.7-1.3,6.2-4.4,6.9-8
	c3.2,1.7,7.2,1.8,10.5-0.2c3.4-1.9,5.3-5.4,5.4-9c3.5,1.1,7.4,0.5,10.4-2c3-2.5,4.3-6.3,3.8-9.8c3.6,0.5,7.3-0.8,9.8-3.8
	c2.5-3,3.1-6.9,2-10.4c3.6-0.1,7.1-2.1,9-5.4c1.9-3.4,1.9-7.3,0.2-10.6c3.5-0.8,6.6-3.3,8-6.9c1.3-3.7,0.6-7.6-1.6-10.4
	c3.4-1.4,6-4.4,6.6-8.2c0.7-3.8-0.7-7.5-3.4-10C-452.9,6.9-450.9,3.5-450.9-0.4z M-464.4,15.5c-0.6,3.4-2.9,6.1-5.9,7.3
	c2,2.6,2.6,6,1.5,9.3c-1.2,3.3-3.9,5.5-7.1,6.2c1.5,2.9,1.6,6.4-0.2,9.4c-1.7,3-4.8,4.7-8.1,4.9c1,3.1,0.4,6.6-1.8,9.2
	c-2.2,2.7-5.6,3.8-8.8,3.4c0.4,3.2-0.7,6.5-3.4,8.8c-2.7,2.2-6.2,2.8-9.2,1.8c-0.1,3.2-1.9,6.3-4.9,8.1c-3,1.7-6.5,1.7-9.4,0.2
	c-0.7,3.2-2.9,5.9-6.2,7.1c-3.3,1.2-6.7,0.5-9.3-1.5c-1.2,3-3.9,5.3-7.3,5.9c-3.4,0.6-6.7-0.7-8.9-3.1c-1.7,2.7-4.8,4.6-8.2,4.6
	c-3.5,0-6.5-1.8-8.2-4.6c-2.2,2.4-5.5,3.7-8.9,3.1c-3.4-0.6-6.1-2.9-7.3-5.9c-2.6,2-6,2.7-9.3,1.5c-3.3-1.2-5.5-3.9-6.2-7.1
	c-2.9,1.5-6.4,1.6-9.4-0.2c-3-1.7-4.7-4.8-4.9-8.1c-3.1,1-6.6,0.4-9.2-1.8c-2.7-2.2-3.8-5.6-3.4-8.8c-3.2,0.4-6.5-0.7-8.8-3.4
	c-2.2-2.7-2.8-6.2-1.8-9.2c-3.2-0.1-6.3-1.8-8.1-4.9c-1.7-3-1.7-6.5-0.2-9.4c-3.2-0.7-5.9-2.9-7.1-6.2c-1.2-3.3-0.5-6.7,1.5-9.3
	c-3-1.2-5.3-3.9-5.9-7.3c-0.6-3.4,0.7-6.7,3.1-8.9c-2.7-1.7-4.6-4.8-4.6-8.2c0-3.5,1.8-6.5,4.6-8.2c-2.4-2.2-3.7-5.5-3.1-8.9
	c0.6-3.4,2.9-6.1,5.9-7.3c-2-2.6-2.6-6-1.5-9.3c1.2-3.3,3.9-5.5,7.1-6.2c-1.5-2.9-1.6-6.4,0.2-9.4c1.7-3,4.8-4.7,8.1-4.9
	c-1-3.1-0.4-6.6,1.8-9.2c2.2-2.7,5.6-3.8,8.8-3.4c-0.4-3.2,0.7-6.5,3.4-8.8c2.7-2.2,6.2-2.8,9.2-1.8c0.1-3.2,1.9-6.3,4.9-8.1
	c3-1.7,6.5-1.7,9.4-0.2c0.7-3.2,2.9-5.9,6.2-7.1c3.3-1.2,6.7-0.5,9.3,1.5c1.2-3,3.9-5.3,7.3-5.9c3.4-0.6,6.7,0.7,8.9,3.1
	c1.7-2.7,4.8-4.6,8.2-4.6c3.5,0,6.5,1.8,8.2,4.6c2.2-2.4,5.5-3.7,8.9-3.1c3.4,0.6,6.1,2.9,7.3,5.9c2.6-2,6-2.7,9.3-1.5
	c3.3,1.2,5.5,3.9,6.2,7.1c2.9-1.5,6.4-1.6,9.4,0.2c3,1.7,4.7,4.8,4.9,8.1c3.1-1,6.6-0.4,9.2,1.8c2.7,2.2,3.8,5.6,3.4,8.8
	c3.2-0.4,6.5,0.7,8.8,3.4c2.2,2.7,2.8,6.2,1.8,9.2c3.2,0.1,6.3,1.9,8.1,4.9c1.7,3,1.7,6.5,0.2,9.4c3.2,0.7,5.9,2.9,7.1,6.2
	c1.2,3.3,0.5,6.7-1.5,9.3c3,1.2,5.3,3.9,5.9,7.3c0.6,3.4-0.7,6.7-3.1,8.9c2.7,1.7,4.6,4.8,4.6,8.2s-1.8,6.5-4.6,8.2
	C-465,8.8-463.8,12.1-464.4,15.5z"/>
<g>
	<polyline class="st1" points="-513.4,39.3 -486,39.3 -507.5,5.1 -519.5,10.5 -527.2,16.5 	"/>
	<rect x="-639.8" y="-36.6" style="fill:none;" width="85.7" height="90"/>
	<text transform="matrix(1 0 0 1 -639.758 37.5801)" class="st1" style="font-family:'Montserrat-Black'; font-size:100px;">S</text>
	<g>
		<path class="st0" d="M-522.7,5c0.1,0.1,0.3,0.1,0.5,0.1l-0.5,1.4c-1.6,0.4-3.7,0.7-5.3,0.5c0.8-1,1.8-2.2,2.5-3.5
			c0.1,0.1,0.2,0.1,0.3,0.2L-522.7,5z M-520.4,7.2c0,0.1,0,0.1,0.1,0.2l1.2,2.7c0.1,0.2,0.2,0.3,0.3,0.4c-5.6,3.7-10.4,8.3-11.4,9.2
			c-1.1,1-1.2,1.4-3,1.8c-1.8,0.5-23.4,18.4-23.4,18.5c-0.9-0.9,22.3-25.8,27.1-30.9c0.6-0.7,1-1,1-1c1.7,0.4,3.9,0.1,5.7-0.2
			C-522,7.6-521,7.3-520.4,7.2z M-533.2,17.6c0.7,0.8,2,0.8,2.7,0c0.8-0.7,0.8-2,0-2.7c-0.7-0.8-2-0.8-2.7,0
			C-533.9,15.7-533.9,16.9-533.2,17.6z M-502.7-26.1c0.2,0.2,0.4,0.4,0.6,0.6c2.9,3,2.8,8.2-0.3,12c0.1,0.2,0.2,0.5,0.2,0.8
			c-0.7,0.6-1.3,1.2-1.8,1.9c-0.4,0-0.8-0.1-1-0.2l0,0c-1.6,1-3.4,1.6-5.1,1.6l0,0c0,0-4.2-0.1-6.3,3.8l-4.7,9.4
			c-0.1,0.2-0.4,0.4-0.6,0.4c-0.1,0-0.3,0-0.4-0.1l-2.6-1.3c-0.1-0.1-0.1-0.1-0.2-0.2c0,0,0-0.1,0-0.1c-0.2-0.2-0.2-0.5-0.1-0.8
			l6.4-12.9c1.2-2.4,1.1-4.7,1.1-4.7l0,0c-0.4-2.6,0.4-5.5,2.4-8C-511.8-27.9-506.2-29-502.7-26.1z M-513.5-22.5
			c-2.4,2.9-2.5,6.8-0.3,9c0.1,0.2,0.3,0.3,0.5,0.4c2.6,2.1,6.8,1.3,9.3-1.7c2.4-2.9,2.4-6.8,0.3-9c-0.1-0.2-0.3-0.3-0.5-0.4
			C-506.9-26.3-511-25.5-513.5-22.5z M-484.1-6.8c-2.2,0.9-3.8,3.4-4.2,4.1c0,0,0,0.1-0.1,0.1c0,0.1-0.1,0.1-0.1,0.1l0,0
			c-0.7,1.3-1.7,2.4-3,3.4c-2.5,1.9-5.5,2.6-8,2.1l0,0c0,0-2.2-0.2-4.7,1l0,0l-12.2,5.6l-0.5,0.2l-0.4,0.2c-0.2,0.1-0.5,0.1-0.7-0.1
			c0,0-0.1-0.1-0.1-0.1c-0.1-0.1-0.1-0.1-0.1-0.2l-1.2-2.6l0,0c-0.1-0.2-0.1-0.4,0-0.5c0.1-0.2,0.2-0.4,0.4-0.4l1.1-0.5l8.4-3.8
			c3.9-2,4-6.2,4-6.2l0,0c0.1-1.8,0.8-3.6,2-5.2c0.6-0.8,1.4-1.6,2.2-2.3l0,0c4-3,9.2-3,12.1,0c0.2,0.2,0.4,0.4,0.5,0.6
			c0.3,0.4,0.6,0.9,0.8,1.3c0.1,0.1,0.1,0.2,0.2,0.3c0.4,0.4,1.1,0.5,2.7,0.4c2.3-0.2,7.6,0.1,8.4,0.3c0.3,0.1,0.5,0.2,0.6,0.3
			c0.1,0.1,0.1,0.3,0.1,0.3s0.1,0.4,0,1c-0.1,0.8-1,0.6-1,0.6C-477.7-7.2-481.5-7.8-484.1-6.8z M-490.6-10c-0.1-0.2-0.3-0.3-0.4-0.5
			c-2.1-2.2-6-2.3-9,0c-3.2,2.4-4.1,6.5-2.1,9.2c0.1,0.2,0.3,0.3,0.4,0.5c2.1,2.2,6,2.3,9,0C-489.5-3.2-488.5-7.4-490.6-10z"/>
		<path class="st0" d="M-534.1,22.6c-1.5,1.7-6.1,5.9-9.8,8.8c-4.4,3.4-12,9.4-12.6,8.7c0.1,0,22.9-18.3,22.9-18.3
			C-533.6,21.9-533.7,22.2-534.1,22.6"/>
	</g>
	<polyline class="st1" points="-557.1,-28.3 -557.1,39.9 -534.1,13.8 -534.1,-28.3 	"/>
</g>
<g id="XMLID_450_">
	<path id="XMLID_539_" class="st1" d="M60.3,23.6c3.5,0,5.6,1.5,5.6,3.9c0,1.7-1,3-2.7,3.5c2,0.4,3.3,1.9,3.3,4
		c0,2.7-2.3,4.4-5.9,4.4h-7.5V23.6H60.3z M56.6,30h3.5c1.3,0,2.2-0.7,2.2-1.8c0-1.1-0.8-1.7-2.2-1.7h-3.5V30z M56.6,36.4h3.5
		c1.7,0,2.7-0.7,2.7-1.9c0-1.1-1-1.8-2.7-1.8h-3.5V36.4z"/>
	<path id="XMLID_535_" class="st1" d="M76,37.9c-0.8,1-2.1,1.6-3.8,1.6c-2.6,0-4.2-1.6-4.2-3.8c0-2.3,1.6-3.6,4.6-3.6H76v-0.2
		c0-1.3-0.9-2-2.5-2c-1.1,0-2.3,0.4-3.6,1.1l-1.1-2.4c1.8-0.9,3.3-1.4,5.5-1.4c3.2,0,5.1,1.6,5.1,4.3l0,7.9H76V37.9z M76,35.2v-1.1
		h-2.7c-1.3,0-2,0.4-2,1.4c0,0.9,0.7,1.5,1.9,1.5C74.6,37,75.8,36.2,76,35.2z"/>
	<path id="XMLID_533_" class="st1" d="M85.8,29.4c0.8-1.5,2.2-2.3,4-2.3v3.3c-2.5-0.2-4,1.1-4,3.1v5.8h-3.5V27.3h3.5V29.4z"/>
	<path id="XMLID_514_" class="st1" d="M104.8,33.4c0,3.7-2.2,6.1-5.6,6.1c-1.7,0-3-0.7-3.9-1.9v1.8h-3.5V22.7h3.5V29
		c0.9-1.2,2.2-1.9,3.8-1.9C102.5,27.1,104.8,29.6,104.8,33.4z M101.3,33.3c0-1.9-1.2-3.3-3-3.3s-3,1.4-3,3.3c0,2,1.2,3.3,3,3.3
		S101.3,35.2,101.3,33.3z"/>
	<path id="XMLID_508_" class="st1" d="M118.1,34.4h-8.7c0.4,1.5,1.6,2.4,3.1,2.4c1.1,0,2.2-0.4,3.1-1.3l1.8,1.8
		c-1.2,1.3-3,2.1-5.2,2.1c-3.9,0-6.3-2.5-6.3-6.1c0-3.7,2.5-6.2,6.2-6.2C116.5,27.1,118.4,30,118.1,34.4z M114.9,32.3
		c0-1.6-1.1-2.6-2.7-2.6c-1.5,0-2.6,1-2.8,2.6H114.9z"/>
	<path id="XMLID_496_" class="st1" d="M123.9,29.4c0.8-1.5,2.2-2.3,4-2.3v3.3c-2.5-0.2-4,1.1-4,3.1v5.8h-3.5V27.3h3.5V29.4z"/>
	<path id="XMLID_485_" class="st0" d="M138.8,41.8c-0.7-0.6-1.4-1.4-1.9-2.4c-4.7-0.1-8.2-3.5-8.2-8c0-4.6,3.6-8,8.4-8
		c4.8,0,8.4,3.4,8.4,8c0,3.5-2.2,6.4-5.3,7.5c0.2,0.2,0.4,0.4,0.6,0.6 M142.4,40.7c0.4,0.3,0.8,0.4,1.2,0.4c0.8,0,1.8-0.5,2.8-1.2
		l1.3,2.3c-1.2,1.1-2.9,1.7-4.4,1.7c-1.2,0-2.3-0.4-3.2-1.1 M140.8,39.5c0.1,0.1,0.2,0.2,0.3,0.2 M137.2,36.4c2.6,0,4.8-2.2,4.8-4.9
		c0-2.8-2.1-4.9-4.8-4.9c-2.6,0-4.8,2.1-4.8,4.9C132.3,34.2,134.6,36.4,137.2,36.4z"/>
	<g id="XMLID_475_">
		<g>
			<path id="XMLID_90_" class="st1" d="M146.8,34.7c0,0,0.1,0,0.1,0l-0.1,0.3c-0.4,0.1-0.8,0.2-1.2,0.1c0.2-0.2,0.4-0.5,0.6-0.8
				c0,0,0,0,0.1,0L146.8,34.7z M147.3,35.2C147.3,35.2,147.3,35.2,147.3,35.2l0.3,0.6c0,0,0,0.1,0.1,0.1c-1.2,0.8-2.3,1.9-2.6,2.1
				c-0.2,0.2-0.3,0.3-0.7,0.4c-0.4,0.1-5.2,4.1-5.3,4.1c-0.2-0.2,5-5.8,6.1-6.9c0.1-0.1,0.2-0.2,0.2-0.2c0.4,0.1,0.9,0,1.3-0.1
				C147,35.3,147.2,35.2,147.3,35.2z M144.5,37.5c0.2,0.2,0.4,0.2,0.6,0c0.2-0.2,0.2-0.4,0-0.6c-0.2-0.2-0.4-0.2-0.6,0
				C144.3,37.1,144.3,37.3,144.5,37.5z M151.3,27.7c0.1,0,0.1,0.1,0.1,0.1c0.6,0.7,0.6,1.8-0.1,2.7c0,0,0,0.1,0,0.2
				c-0.2,0.1-0.3,0.3-0.4,0.4c-0.1,0-0.2,0-0.2-0.1l0,0c-0.4,0.2-0.8,0.4-1.1,0.4l0,0c0,0-0.9,0-1.4,0.9l-1.1,2.1
				c0,0.1-0.1,0.1-0.1,0.1c0,0-0.1,0-0.1,0l-0.6-0.3c0,0,0,0,0,0c0,0,0,0,0,0c0,0,0-0.1,0-0.2l1.4-2.9c0.3-0.5,0.2-1,0.2-1l0,0
				c-0.1-0.6,0.1-1.2,0.5-1.8C149.3,27.3,150.5,27.1,151.3,27.7z M148.9,28.5c-0.5,0.6-0.6,1.5-0.1,2c0,0,0.1,0.1,0.1,0.1
				c0.6,0.5,1.5,0.3,2.1-0.4c0.5-0.6,0.5-1.5,0.1-2c0,0-0.1-0.1-0.1-0.1C150.4,27.7,149.4,27.8,148.9,28.5z M155.5,32
				c-0.5,0.2-0.9,0.8-0.9,0.9c0,0,0,0,0,0c0,0,0,0,0,0l0,0c-0.2,0.3-0.4,0.5-0.7,0.8c-0.6,0.4-1.2,0.6-1.8,0.5l0,0
				c0,0-0.5,0-1.1,0.2l0,0l-2.7,1.3l-0.1,0l-0.1,0c-0.1,0-0.1,0-0.2,0c0,0,0,0,0,0c0,0,0,0,0,0l-0.3-0.6l0,0c0,0,0-0.1,0-0.1
				c0,0,0-0.1,0.1-0.1l0.3-0.1l1.9-0.9c0.9-0.5,0.9-1.4,0.9-1.4l0,0c0-0.4,0.2-0.8,0.4-1.2c0.1-0.2,0.3-0.4,0.5-0.5l0,0
				c0.9-0.7,2.1-0.7,2.7,0c0,0,0.1,0.1,0.1,0.1c0.1,0.1,0.1,0.2,0.2,0.3c0,0,0,0,0.1,0.1c0.1,0.1,0.2,0.1,0.6,0.1
				c0.5,0,1.7,0,1.9,0.1c0.1,0,0.1,0,0.1,0.1c0,0,0,0.1,0,0.1s0,0.1,0,0.2c0,0.2-0.2,0.1-0.2,0.1C156.9,32,156.1,31.8,155.5,32z
				 M154,31.3c0,0-0.1-0.1-0.1-0.1c-0.5-0.5-1.4-0.5-2,0c-0.7,0.5-0.9,1.5-0.5,2.1c0,0,0.1,0.1,0.1,0.1c0.5,0.5,1.4,0.5,2,0
				C154.3,32.8,154.5,31.9,154,31.3z"/>
			<path id="XMLID_89_" class="st1" d="M144.3,38.6c-0.3,0.4-1.4,1.3-2.2,2c-1,0.8-2.7,2.1-2.8,2c0,0,5.1-4.1,5.1-4.1
				C144.4,38.5,144.3,38.5,144.3,38.6"/>
		</g>
	</g>
	<g id="XMLID_2_">
		<path id="XMLID_467_" class="st0" d="M42.8,30c0-0.7-0.4-1.3-0.9-1.7c0.5-0.4,0.7-1.1,0.6-1.8c-0.1-0.7-0.6-1.2-1.2-1.5
			c0.4-0.5,0.5-1.2,0.3-1.9c-0.2-0.7-0.8-1.1-1.4-1.2c0.3-0.6,0.3-1.3,0-1.9c-0.3-0.6-1-1-1.6-1c0.2-0.6,0.1-1.3-0.4-1.9
			c-0.4-0.5-1.1-0.8-1.8-0.7c0.1-0.6-0.1-1.3-0.7-1.8c-0.5-0.4-1.2-0.6-1.9-0.4c0-0.7-0.4-1.3-1-1.6c-0.6-0.3-1.3-0.3-1.9,0
			c-0.1-0.6-0.6-1.2-1.2-1.4c-0.7-0.2-1.4-0.1-1.9,0.3c-0.2-0.6-0.8-1.1-1.5-1.2c-0.7-0.1-1.4,0.1-1.8,0.6c-0.3-0.5-1-0.9-1.7-0.9
			c-0.7,0-1.3,0.4-1.7,0.9c-0.4-0.5-1.1-0.7-1.8-0.6c-0.7,0.1-1.2,0.6-1.5,1.2c-0.5-0.4-1.2-0.5-1.9-0.3c-0.7,0.2-1.1,0.8-1.2,1.4
			c-0.6-0.3-1.3-0.3-1.9,0c-0.6,0.3-1,1-1,1.6c-0.6-0.2-1.3-0.1-1.9,0.4c-0.5,0.4-0.8,1.1-0.7,1.8c-0.6-0.1-1.3,0.1-1.8,0.7
			c-0.4,0.5-0.6,1.2-0.4,1.9c-0.7,0-1.3,0.4-1.6,1c-0.3,0.6-0.3,1.3,0,1.9c-0.6,0.1-1.2,0.6-1.4,1.2C4,23.8,4.1,24.5,4.5,25
			c-0.6,0.2-1.1,0.8-1.2,1.5c-0.1,0.7,0.1,1.4,0.6,1.8C3.4,28.7,3,29.3,3,30c0,0.7,0.4,1.3,0.9,1.7c-0.5,0.4-0.7,1.1-0.6,1.8
			c0.1,0.7,0.6,1.2,1.2,1.5c-0.4,0.5-0.5,1.2-0.3,1.9C4.5,37.4,5,37.9,5.7,38c-0.3,0.6-0.3,1.3,0,1.9c0.3,0.6,1,1,1.6,1
			c-0.2,0.6-0.1,1.3,0.4,1.9c0.4,0.5,1.1,0.8,1.8,0.7c-0.1,0.6,0.1,1.3,0.7,1.8c0.5,0.4,1.2,0.6,1.9,0.4c0,0.7,0.4,1.3,1,1.6
			c0.6,0.3,1.3,0.3,1.9,0c0.1,0.6,0.6,1.2,1.2,1.4c0.7,0.2,1.4,0.1,1.9-0.3c0.2,0.6,0.8,1.1,1.5,1.2c0.7,0.1,1.4-0.1,1.8-0.6
			c0.3,0.6,1,0.9,1.7,0.9c0.7,0,1.3-0.4,1.7-0.9c0.4,0.5,1.1,0.7,1.8,0.6c0.7-0.1,1.2-0.6,1.5-1.2c0.5,0.4,1.2,0.5,1.9,0.3
			c0.7-0.2,1.1-0.8,1.2-1.4c0.6,0.3,1.3,0.3,1.9,0c0.6-0.3,1-1,1-1.6c0.6,0.2,1.3,0.1,1.9-0.4c0.5-0.4,0.8-1.1,0.7-1.8
			c0.6,0.1,1.3-0.1,1.8-0.7c0.4-0.5,0.6-1.2,0.4-1.9c0.7,0,1.3-0.4,1.6-1c0.3-0.6,0.3-1.3,0-1.9c0.6-0.1,1.2-0.6,1.4-1.2
			c0.2-0.7,0.1-1.4-0.3-1.9c0.6-0.2,1.1-0.8,1.2-1.5c0.1-0.7-0.1-1.4-0.6-1.8C42.4,31.3,42.8,30.7,42.8,30z M40.3,32.8
			c-0.1,0.6-0.5,1.1-1.1,1.3c0.4,0.5,0.5,1.1,0.3,1.7c-0.2,0.6-0.7,1-1.3,1.1c0.3,0.5,0.3,1.1,0,1.7c-0.3,0.5-0.9,0.8-1.4,0.9
			c0.2,0.6,0.1,1.2-0.3,1.7c-0.4,0.5-1,0.7-1.6,0.6c0.1,0.6-0.1,1.2-0.6,1.6c-0.5,0.4-1.1,0.5-1.7,0.3c0,0.6-0.3,1.1-0.9,1.4
			c-0.5,0.3-1.2,0.3-1.7,0c-0.1,0.6-0.5,1.1-1.1,1.3c-0.6,0.2-1.2,0.1-1.7-0.3c-0.2,0.5-0.7,1-1.3,1.1c-0.6,0.1-1.2-0.1-1.6-0.5
			c-0.3,0.5-0.9,0.8-1.5,0.8c-0.6,0-1.2-0.3-1.5-0.8c-0.4,0.4-1,0.7-1.6,0.5c-0.6-0.1-1.1-0.5-1.3-1.1c-0.5,0.4-1.1,0.5-1.7,0.3
			c-0.6-0.2-1-0.7-1.1-1.3c-0.5,0.3-1.1,0.3-1.7,0c-0.5-0.3-0.8-0.9-0.9-1.4c-0.6,0.2-1.2,0.1-1.7-0.3c-0.5-0.4-0.7-1-0.6-1.6
			c-0.6,0.1-1.2-0.1-1.6-0.6C8.9,40.7,8.8,40,9,39.5c-0.6,0-1.1-0.3-1.4-0.9c-0.3-0.5-0.3-1.2,0-1.7c-0.6-0.1-1.1-0.5-1.3-1.1
			c-0.2-0.6-0.1-1.2,0.3-1.7c-0.5-0.2-1-0.7-1.1-1.3c-0.1-0.6,0.1-1.2,0.5-1.6c-0.5-0.3-0.8-0.9-0.8-1.5c0-0.6,0.3-1.2,0.8-1.5
			c-0.4-0.4-0.7-1-0.5-1.6c0.1-0.6,0.5-1.1,1.1-1.3c-0.4-0.5-0.5-1.1-0.3-1.7c0.2-0.6,0.7-1,1.3-1.1c-0.3-0.5-0.3-1.1,0-1.7
			C7.9,20.3,8.4,20,9,20c-0.2-0.6-0.1-1.2,0.3-1.7c0.4-0.5,1-0.7,1.6-0.6c-0.1-0.6,0.1-1.2,0.6-1.6c0.5-0.4,1.1-0.5,1.7-0.3
			c0-0.6,0.3-1.1,0.9-1.4c0.5-0.3,1.2-0.3,1.7,0c0.1-0.6,0.5-1.1,1.1-1.3c0.6-0.2,1.2-0.1,1.7,0.3c0.2-0.5,0.7-1,1.3-1.1
			c0.6-0.1,1.2,0.1,1.6,0.5c0.3-0.5,0.9-0.8,1.5-0.8c0.6,0,1.2,0.3,1.5,0.8c0.4-0.4,1-0.7,1.6-0.5c0.6,0.1,1.1,0.5,1.3,1.1
			c0.5-0.4,1.1-0.5,1.7-0.3c0.6,0.2,1,0.7,1.1,1.3c0.5-0.3,1.1-0.3,1.7,0c0.5,0.3,0.8,0.9,0.9,1.4c0.6-0.2,1.2-0.1,1.7,0.3
			c0.5,0.4,0.7,1,0.6,1.6c0.6-0.1,1.2,0.1,1.6,0.6c0.4,0.5,0.5,1.1,0.3,1.7c0.6,0,1.1,0.3,1.4,0.9c0.3,0.5,0.3,1.2,0,1.7
			c0.6,0.1,1.1,0.5,1.3,1.1c0.2,0.6,0.1,1.2-0.3,1.7c0.5,0.2,1,0.7,1.1,1.3c0.1,0.6-0.1,1.2-0.5,1.6c0.5,0.3,0.8,0.9,0.8,1.5
			c0,0.6-0.3,1.2-0.8,1.5C40.2,31.6,40.5,32.2,40.3,32.8z"/>
		<path id="XMLID_462_" class="st0" d="M21.6,38.5c-0.7-0.6-1.4-1.4-1.9-2.4c-4.7-0.1-8.2-3.5-8.2-8c0-4.6,3.6-8,8.4-8
			s8.4,3.4,8.4,8c0,3.5-2.2,6.4-5.3,7.5c0.2,0.2,0.4,0.4,0.6,0.6 M25.1,37.3c0.4,0.3,0.8,0.4,1.2,0.4c0.8,0,1.8-0.5,2.8-1.2l1.3,2.3
			c-1.2,1.1-2.9,1.7-4.4,1.7c-1.2,0-2.3-0.4-3.2-1.1 M23.6,36.2c0.1,0.1,0.2,0.2,0.3,0.2 M20,33c2.6,0,4.8-2.2,4.8-4.9
			c0-2.8-2.1-4.9-4.8-4.9c-2.6,0-4.8,2.1-4.8,4.9C15.1,30.9,17.3,33,20,33z"/>
		<g id="XMLID_452_">
			<g>
				<path id="XMLID_99_" class="st1" d="M29.6,31.3c0,0,0.1,0,0.1,0l-0.1,0.3c-0.4,0.1-0.8,0.2-1.2,0.1c0.2-0.2,0.4-0.5,0.6-0.8
					c0,0,0,0,0.1,0L29.6,31.3z M30.1,31.8C30.1,31.8,30.1,31.8,30.1,31.8l0.3,0.6c0,0,0,0.1,0.1,0.1c-1.2,0.8-2.3,1.9-2.6,2.1
					c-0.2,0.2-0.3,0.3-0.7,0.4c-0.4,0.1-5.2,4.1-5.3,4.1c-0.2-0.2,5-5.8,6.1-6.9c0.1-0.1,0.2-0.2,0.2-0.2c0.4,0.1,0.9,0,1.3-0.1
					C29.7,31.9,29.9,31.8,30.1,31.8z M27.2,34.2c0.2,0.2,0.4,0.2,0.6,0c0.2-0.2,0.2-0.4,0-0.6c-0.2-0.2-0.4-0.2-0.6,0
					C27.1,33.7,27,34,27.2,34.2z M34,24.3c0.1,0,0.1,0.1,0.1,0.1c0.6,0.7,0.6,1.8-0.1,2.7c0,0,0,0.1,0,0.2c-0.2,0.1-0.3,0.3-0.4,0.4
					c-0.1,0-0.2,0-0.2-0.1l0,0c-0.4,0.2-0.8,0.4-1.1,0.4l0,0c0,0-0.9,0-1.4,0.9L29.9,31c0,0.1-0.1,0.1-0.1,0.1c0,0-0.1,0-0.1,0
					l-0.6-0.3c0,0,0,0,0,0c0,0,0,0,0,0c0,0,0-0.1,0-0.2l1.4-2.9c0.3-0.5,0.2-1,0.2-1l0,0c-0.1-0.6,0.1-1.2,0.5-1.8
					C32,23.9,33.3,23.7,34,24.3z M31.6,25.1c-0.5,0.6-0.6,1.5-0.1,2c0,0,0.1,0.1,0.1,0.1c0.6,0.5,1.5,0.3,2.1-0.4
					c0.5-0.6,0.5-1.5,0.1-2c0,0-0.1-0.1-0.1-0.1C33.1,24.3,32.2,24.5,31.6,25.1z M38.2,28.7c-0.5,0.2-0.9,0.8-0.9,0.9c0,0,0,0,0,0
					c0,0,0,0,0,0l0,0c-0.2,0.3-0.4,0.5-0.7,0.8c-0.6,0.4-1.2,0.6-1.8,0.5l0,0c0,0-0.5,0-1.1,0.2l0,0L31,32.3l-0.1,0l-0.1,0
					c-0.1,0-0.1,0-0.2,0c0,0,0,0,0,0c0,0,0,0,0,0l-0.3-0.6l0,0c0,0,0-0.1,0-0.1c0,0,0-0.1,0.1-0.1l0.3-0.1l1.9-0.9
					c0.9-0.5,0.9-1.4,0.9-1.4l0,0c0-0.4,0.2-0.8,0.4-1.2c0.1-0.2,0.3-0.4,0.5-0.5l0,0c0.9-0.7,2.1-0.7,2.7,0c0,0,0.1,0.1,0.1,0.1
					c0.1,0.1,0.1,0.2,0.2,0.3c0,0,0,0,0.1,0.1c0.1,0.1,0.2,0.1,0.6,0.1c0.5,0,1.7,0,1.9,0.1c0.1,0,0.1,0,0.1,0.1c0,0,0,0.1,0,0.1
					s0,0.1,0,0.2c0,0.2-0.2,0.1-0.2,0.1C39.7,28.6,38.8,28.4,38.2,28.7z M36.8,27.9c0,0-0.1-0.1-0.1-0.1c-0.5-0.5-1.4-0.5-2,0
					c-0.7,0.5-0.9,1.5-0.5,2.1c0,0,0.1,0.1,0.1,0.1c0.5,0.5,1.4,0.5,2,0C37,29.5,37.2,28.5,36.8,27.9z"/>
				<path id="XMLID_98_" class="st1" d="M27,35.3c-0.3,0.4-1.4,1.3-2.2,2c-1,0.8-2.7,2.1-2.8,2c0,0,5.1-4.1,5.1-4.1
					C27.1,35.1,27.1,35.2,27,35.3"/>
			</g>
		</g>
	</g>
</g>
</svg>
